# ProBuilder 4.5.2
# https://unity3d.com/unity/features/worldbuilding/probuilder
# 10/9/2021 7:11:15 PM

mtllib ./Block.mtl
o Block

g Block
v 0.5 0 0.5
v -0.5 0 0.5
v 0.5 0.2 0.5
v -0.5 0.2 0.5
v -0.5 0 -0.5
v -0.5 0.2 -0.5
v 0.5 0 -0.5
v 0.5 0.2 -0.5
v 0.45 0.25 0.45
v -0.45 0.25 0.45
v 0.45 0.25 -0.45
v -0.45 0.25 -0.45

vt 0 0
vt -1 0
vt 0 0.2
vt -1 0.2
vt 1 0
vt 1 0.2
vt 0.05000001 -0.05000001
vt 0.95 -0.05000001
vt 0.05000001 -0.95
vt 0.95 -0.95
vt 0 -1
vt -1 -1
vt 0 0.1414213
vt -1 0.1414213
vt -0.05000001 0.212132
vt -0.95 0.212132
vt 0.1414213 -1
vt 0.1414213 0
vt 0.212132 -0.95
vt 0.212132 -0.05000001
vt 0.5656856 0
vt 0.5656856 -1
vt 0.4949749 -0.05000001
vt 0.4949749 -0.95
vt 1 -0.5656855
vt 0 -0.5656855
vt 0.95 -0.4949748
vt 0.05000001 -0.4949748

vn 0 0 1
vn -1 0 0
vn 0 0 -1
vn 1 0 0
vn 0 1 0
vn 0 -1 0
vn 0 0.7071069 0.7071067
vn 0.7071067 0.7071069 0
vn -0.7071067 0.7071069 0
vn 0 0.7071069 -0.7071067

usemtl New_Material_2
f 3/3/1 4/4/1 2/2/1 1/1/1
f 4/3/2 6/4/2 5/2/2 2/1/2
f 6/6/3 8/3/3 7/1/3 5/5/3
f 8/6/4 3/3/4 1/1/4 7/5/4
f 11/9/5 12/10/5 10/8/5 9/7/5
f 1/1/6 2/2/6 5/12/6 7/11/6
f 9/15/7 10/16/7 4/14/7 3/13/7
f 11/19/8 9/20/8 3/18/8 8/17/8
f 10/23/9 12/24/9 6/22/9 4/21/9
f 12/27/10 11/28/10 8/26/10 6/25/10

g BlockerRIght
v 0.45 0.65 -0.425
v -0.4499999 0.65 -0.425
v 0.45 0.7 -0.425
v -0.4499999 0.7 -0.425
v -0.4499999 0.65 -0.475
v -0.4499999 0.7 -0.475
v 0.45 0.65 -0.475
v 0.45 0.7 -0.475
v 0.45 0.7501 -0.45
v -0.4499999 0.7501 -0.45
v 0.4500001 0.7701302 -0.4000001
v 0.397427 0.6850651 -0.3675081
v 0.3649351 0.7376382 -0.4525732
v 0.4500002 0.7701302 -0.5051464
v 0.5350652 0.7376382 -0.4525732
v 0.5025733 0.6850651 -0.3675081
v 0.3974271 0.6850651 -0.5376383
v 0.3649351 0.632492 -0.4525732
v 0.4500001 0.6 -0.4000001
v 0.5350652 0.632492 -0.4525732
v 0.5025733 0.6850651 -0.5376383
v 0.4500002 0.6 -0.5051464
v -0.4499998 0.7701302 -0.4000001
v -0.5025729 0.6850651 -0.3675081
v -0.5350649 0.7376382 -0.4525732
v -0.4499998 0.7701302 -0.5051464
v -0.3649347 0.7376382 -0.4525732
v -0.3974267 0.6850651 -0.3675081
v -0.5025729 0.6850651 -0.5376383
v -0.5350649 0.632492 -0.4525732
v -0.4499998 0.6 -0.4000001
v -0.3649347 0.632492 -0.4525732
v -0.3974267 0.6850651 -0.5376383
v -0.4499998 0.6 -0.5051464

vt -0.15 0
vt -1.05 0
vt -0.15 0.05000001
vt -1.05 0.05000001
vt 0.02499998 0
vt -0.02499998 0
vt 0.02499998 0.05000001
vt -0.02499998 0.05000001
vt 1.05 0
vt 0.15 0
vt 1.05 0.05000001
vt 0.15 0.05000001
vt -0.15 -0.02499998
vt -1.05 -0.02499998
vt -0.15 0.02499998
vt -1.05 0.02499998
vt -0.15 0.03357676
vt -1.05 0.03357676
vt -0.15 0.08956788
vt -1.05 0.08956788
vt 0 0.1001
vt 1.05 0.03357676
vt 0.15 0.03357676
vt 1.05 0.08956788
vt 0.15 0.08956788
vt 0 0.1701302
vt 0.03249197 0.08506508
vt -0.05257311 0.1376382
vt 0 0
vt 0.05257311 0.08506508
vt 0.1051462 0
vt 0.05257311 -0.08506508
vt 0.05257311 0.1376382
vt -0.03249197 0.08506508
vt -0.05257311 0.08506508
vt -0.1051462 0.1701302
vt -0.1376382 0.08506508
vt -0.05257311 0.03249197
vt 0.05257311 0.03249197
vt 0.1051462 0.1701302
vt 0.1376382 0.08506508
vt -0.1051462 0
vt -0.05257311 -0.08506508

vn 0 0 1
vn -1 0 0
vn 0 0 -1
vn 1 0 0
vn 0 -1 0
vn 0 0.4464989 0.8947842
vn 0 0.4464989 -0.8947842
vn -0.5773503 0.5773504 0.5773501
vn -0.3568217 0.9341726 -1.011364E-07
vn 0.3568215 0.9341726 1.011363E-07
vn 0.5773498 0.5773504 0.5773506
vn 0 0.3568223 0.9341723
vn -0.5773502 0.5773501 -0.5773506
vn -0.9341725 0 0.3568217
vn 0 -0.3568223 0.9341723
vn 0.9341723 0 0.3568223
vn 0.5773504 0.5773501 -0.5773503
vn -0.5773504 -0.5773501 -0.5773502
vn -0.3568222 -0.9341723 -1.011365E-07
vn 0.3568221 -0.9341724 1.011365E-07
vn 0.5773507 -0.5773502 -0.57735
vn 0 -0.3568217 -0.9341725
vn -0.9341723 0 -0.3568223
vn -0.5773505 -0.5773504 0.5773498
vn 0.57735 -0.5773504 0.5773503
vn 0.9341724 0 -0.356822
vn 0 0.3568217 -0.9341725

usemtl New_Material_6
f 21/49/14 15/36/14 20/35/14
f 22/49/12 18/36/12 16/35/12
f 25/56/18 24/55/18 23/54/18
f 26/59/19 25/58/19 23/57/19
f 27/60/20 26/59/20 23/57/20
f 28/62/21 27/61/21 23/54/21
f 24/63/22 28/58/22 23/54/22
f 29/65/23 25/56/23 26/64/23
f 30/66/24 24/55/24 25/56/24
f 31/57/25 28/58/25 24/63/25
f 32/67/26 27/61/26 28/62/26
f 33/69/27 26/68/27 27/61/27
f 30/66/28 29/65/28 34/70/28
f 31/57/29 30/63/29 34/70/29
f 32/71/30 31/57/30 34/70/30
f 33/69/31 32/67/31 34/59/31
f 29/58/32 33/63/32 34/57/32
f 25/56/33 29/65/33 30/66/33
f 24/55/34 30/66/34 31/57/34
f 28/62/35 31/57/35 32/67/35
f 27/61/36 32/67/36 33/69/36
f 26/54/37 33/63/37 29/58/37
f 37/56/18 36/55/18 35/54/18
f 38/59/19 37/58/19 35/57/19
f 39/60/20 38/59/20 35/57/20
f 40/62/21 39/61/21 35/54/21
f 36/63/22 40/58/22 35/54/22
f 41/65/23 37/56/23 38/64/23
f 42/66/24 36/55/24 37/56/24
f 43/57/25 40/58/25 36/63/25
f 44/67/26 39/61/26 40/62/26
f 45/69/27 38/68/27 39/61/27
f 42/66/28 41/65/28 46/70/28
f 43/57/29 42/63/29 46/70/29
f 44/71/30 43/57/30 46/70/30
f 45/69/31 44/67/31 46/59/31
f 41/58/32 45/63/32 46/57/32
f 37/56/33 41/65/33 42/66/33
f 36/55/34 42/66/34 43/57/34
f 40/62/35 43/57/35 44/67/35
f 39/61/36 44/67/36 45/69/36
f 38/54/37 45/63/37 41/58/37
f 16/32/11 14/30/11 13/29/11
f 13/29/11 15/31/11 16/32/11
f 18/36/12 17/34/12 14/33/12
f 14/33/12 16/35/12 18/36/12
f 20/40/13 19/38/13 17/37/13
f 17/37/13 18/39/13 20/40/13
f 15/36/14 13/34/14 19/33/14
f 19/33/14 20/35/14 15/36/14
f 14/44/15 17/42/15 19/41/15
f 19/41/15 13/43/15 14/44/15
f 22/48/16 16/46/16 15/45/16
f 15/45/16 21/47/16 22/48/16
f 21/53/17 20/51/17 18/50/17
f 18/50/17 22/52/17 21/53/17

g BlockerLeft
v 0.45 0.65 0.475
v -0.4499999 0.65 0.475
v 0.45 0.7 0.475
v -0.4499999 0.7 0.475
v -0.4499999 0.65 0.425
v -0.4499999 0.7 0.425
v 0.45 0.65 0.425
v 0.45 0.7 0.425
v 0.45 0.7501 0.45
v -0.4499999 0.7501 0.45
v 0.45 0.7701302 0.5
v 0.3974269 0.6850651 0.532492
v 0.364935 0.7376382 0.4474269
v 0.4500001 0.7701302 0.3948538
v 0.5350651 0.7376382 0.4474269
v 0.5025731 0.6850651 0.532492
v 0.397427 0.6850651 0.3623618
v 0.364935 0.632492 0.4474269
v 0.45 0.6 0.5
v 0.5350651 0.632492 0.4474269
v 0.5025731 0.6850651 0.3623618
v 0.4500001 0.6 0.3948538
v -0.4499999 0.7701302 0.5
v -0.502573 0.6850651 0.532492
v -0.5350651 0.7376382 0.4474269
v -0.4499999 0.7701302 0.3948538
v -0.3649348 0.7376382 0.4474269
v -0.3974268 0.6850651 0.532492
v -0.502573 0.6850651 0.3623618
v -0.5350651 0.632492 0.4474269
v -0.4499999 0.6 0.5
v -0.3649348 0.632492 0.4474269
v -0.3974268 0.6850651 0.3623618
v -0.4499999 0.6 0.3948538

vt -0.15 0
vt -1.05 0
vt -0.15 0.05000001
vt -1.05 0.05000001
vt 0.02499998 0
vt -0.02499998 0
vt 0.02499998 0.05000001
vt -0.02499998 0.05000001
vt 1.05 0
vt 0.15 0
vt 1.05 0.05000001
vt 0.15 0.05000001
vt -0.15 -0.02499998
vt -1.05 -0.02499998
vt -0.15 0.02499998
vt -1.05 0.02499998
vt -0.15 0.03357676
vt -1.05 0.03357676
vt -0.15 0.08956788
vt -1.05 0.08956788
vt 0 0.1001
vt 1.05 0.03357676
vt 0.15 0.03357676
vt 1.05 0.08956788
vt 0.15 0.08956788
vt 0 0.1701302
vt 0.03249197 0.08506508
vt -0.05257311 0.1376382
vt 0 0
vt 0.05257311 0.08506508
vt 0.1051462 0
vt 0.05257311 -0.08506508
vt 0.05257311 0.1376382
vt -0.03249197 0.08506508
vt -0.05257311 0.08506508
vt -0.1051462 0.1701302
vt -0.1376382 0.08506508
vt -0.05257311 0.03249197
vt 0.05257311 0.03249197
vt 0.1051462 0.1701302
vt 0.1376382 0.08506508
vt -0.1051462 0
vt -0.05257311 -0.08506508

vn 0 0 1
vn -1 0 0
vn 0 0 -1
vn 1 0 0
vn 0 -1 0
vn 0 0.4464989 0.8947842
vn 0 0.4464989 -0.8947842
vn -0.5773501 0.5773504 0.5773503
vn -0.3568216 0.9341725 -1.011364E-07
vn 0.3568217 0.9341725 1.011364E-07
vn 0.5773501 0.5773504 0.5773504
vn 0 0.3568223 0.9341723
vn -0.5773501 0.5773504 -0.5773504
vn -0.9341725 0 0.3568219
vn 0 -0.3568223 0.9341723
vn 0.9341723 0 0.3568222
vn 0.5773502 0.5773502 -0.5773504
vn -0.5773503 -0.5773504 -0.5773501
vn -0.3568222 -0.9341723 -1.011366E-07
vn 0.3568223 -0.9341723 1.011366E-07
vn 0.5773504 -0.5773503 -0.5773501
vn 0 -0.3568223 -0.9341723
vn -0.9341723 0 -0.3568222
vn -0.5773504 -0.5773504 0.57735
vn 0.5773503 -0.5773504 0.5773501
vn 0.9341723 0 -0.3568222
vn 0 0.3568223 -0.9341723

usemtl New_Material_6
f 55/92/41 49/79/41 54/78/41
f 56/92/39 52/79/39 50/78/39
f 59/99/45 58/98/45 57/97/45
f 60/102/46 59/101/46 57/100/46
f 61/103/47 60/102/47 57/100/47
f 62/105/48 61/104/48 57/97/48
f 58/106/49 62/101/49 57/97/49
f 63/108/50 59/99/50 60/107/50
f 64/109/51 58/98/51 59/99/51
f 65/100/52 62/101/52 58/106/52
f 66/110/53 61/104/53 62/105/53
f 67/112/54 60/111/54 61/104/54
f 64/109/55 63/108/55 68/113/55
f 65/100/56 64/106/56 68/113/56
f 66/114/57 65/100/57 68/113/57
f 67/112/58 66/110/58 68/102/58
f 63/101/59 67/106/59 68/100/59
f 59/99/60 63/108/60 64/109/60
f 58/98/61 64/109/61 65/100/61
f 62/105/62 65/100/62 66/110/62
f 61/104/63 66/110/63 67/112/63
f 60/97/64 67/106/64 63/101/64
f 71/99/45 70/98/45 69/97/45
f 72/102/46 71/101/46 69/100/46
f 73/103/47 72/102/47 69/100/47
f 74/105/48 73/104/48 69/97/48
f 70/106/49 74/101/49 69/97/49
f 75/108/50 71/99/50 72/107/50
f 76/109/51 70/98/51 71/99/51
f 77/100/52 74/101/52 70/106/52
f 78/110/53 73/104/53 74/105/53
f 79/112/54 72/111/54 73/104/54
f 76/109/55 75/108/55 80/113/55
f 77/100/56 76/106/56 80/113/56
f 78/114/57 77/100/57 80/113/57
f 79/112/58 78/110/58 80/102/58
f 75/101/59 79/106/59 80/100/59
f 71/99/60 75/108/60 76/109/60
f 70/98/61 76/109/61 77/100/61
f 74/105/62 77/100/62 78/110/62
f 73/104/63 78/110/63 79/112/63
f 72/97/64 79/106/64 75/101/64
f 50/75/38 48/73/38 47/72/38
f 47/72/38 49/74/38 50/75/38
f 52/79/39 51/77/39 48/76/39
f 48/76/39 50/78/39 52/79/39
f 54/83/40 53/81/40 51/80/40
f 51/80/40 52/82/40 54/83/40
f 49/79/41 47/77/41 53/76/41
f 53/76/41 54/78/41 49/79/41
f 48/87/42 51/85/42 53/84/42
f 53/84/42 47/86/42 48/87/42
f 56/91/43 50/89/43 49/88/43
f 49/88/43 55/90/43 56/91/43
f 55/96/44 54/94/44 52/93/44
f 52/93/44 56/95/44 55/96/44

g BlockerUp
v -0.4749999 0.65 0.45
v -0.4749998 0.65 -0.45
v -0.4749999 0.7 0.45
v -0.4749998 0.7 -0.45
v -0.4249999 0.65 -0.45
v -0.4249999 0.7 -0.45
v -0.425 0.65 0.45
v -0.425 0.7 0.45
v -0.45 0.7501 0.45
v -0.4499999 0.7501 -0.45
v -0.4499999 0.7701302 -0.4000003
v -0.502573 0.6850651 -0.3675084
v -0.5350649 0.7376382 -0.4525734
v -0.4499999 0.7701302 -0.5051465
v -0.3649347 0.7376382 -0.4525734
v -0.3974267 0.6850651 -0.3675084
v -0.5025731 0.6850651 -0.5376385
v -0.5350649 0.632492 -0.4525734
v -0.4499999 0.6 -0.4000003
v -0.3649347 0.632492 -0.4525734
v -0.3974266 0.6850651 -0.5376385
v -0.4499999 0.6 -0.5051465
v -0.45 0.7701302 0.5
v -0.5025731 0.6850651 0.5324919
v -0.5350651 0.7376382 0.4474269
v -0.4499999 0.7701302 0.3948537
v -0.3649349 0.7376382 0.4474269
v -0.3974268 0.6850651 0.532492
v -0.5025731 0.6850651 0.3623617
v -0.5350651 0.632492 0.4474269
v -0.45 0.6 0.5
v -0.3649349 0.632492 0.4474269
v -0.3974268 0.6850651 0.3623617
v -0.4499999 0.6 0.3948537

vt -0.15 0
vt -1.05 0
vt -0.15 0.05000001
vt -1.05 0.05000001
vt 0.02499998 0
vt -0.02499998 0
vt 0.02499998 0.05000001
vt -0.02499998 0.05000001
vt 1.05 0
vt 0.15 0
vt 1.05 0.05000001
vt 0.15 0.05000001
vt -0.15 -0.02499998
vt -1.05 -0.02499998
vt -0.15 0.02499998
vt -1.05 0.02499998
vt -0.15 0.03357676
vt -1.05 0.03357676
vt -0.15 0.08956788
vt -1.05 0.08956788
vt 0 0.1001
vt 1.05 0.03357676
vt 0.15 0.03357676
vt 1.05 0.08956788
vt 0.15 0.08956788
vt 0 0.1701302
vt 0.03249197 0.08506508
vt -0.05257311 0.1376382
vt 0 0
vt 0.05257311 0.08506508
vt 0.1051462 0
vt 0.05257311 -0.08506508
vt 0.05257311 0.1376382
vt -0.03249197 0.08506508
vt -0.05257311 0.08506508
vt -0.1051462 0.1701302
vt -0.1376382 0.08506508
vt -0.05257311 0.03249197
vt 0.05257311 0.03249197
vt 0.1051462 0.1701302
vt 0.1376382 0.08506508
vt -0.1051462 0
vt -0.05257311 -0.08506508

vn -1 0 -1.192093E-07
vn 1.192093E-07 0 -1
vn 1 0 1.192093E-07
vn -1.192093E-07 0 1
vn 0 -1 0
vn -0.8947843 0.4464989 -1.066666E-07
vn 0.8947843 0.4464989 1.066666E-07
vn -0.5773501 0.5773502 0.5773506
vn -0.3568217 0.9341725 -4.253646E-08
vn 0.3568215 0.9341726 4.253643E-08
vn 0.5773498 0.5773505 0.5773507
vn -6.409197E-07 0.356822 0.9341725
vn -0.5773499 0.5773511 -0.5773499
vn -0.9341726 0 0.3568219
vn -6.409197E-07 -0.356822 0.9341725
vn 0.9341724 0 0.3568224
vn 0.5773498 0.577351 -0.5773501
vn -0.5773501 -0.5773512 -0.5773497
vn -0.3568223 -0.9341723 -4.253653E-08
vn 0.3568221 -0.9341724 4.25365E-08
vn 0.57735 -0.577351 -0.5773498
vn 1.11362E-07 -0.3568228 -0.9341722
vn -0.9341729 0 -0.356821
vn -0.5773504 -0.5773503 0.5773503
vn 0.57735 -0.5773505 0.5773504
vn 0.9341728 0 -0.3568214
vn 1.11362E-07 0.3568228 -0.9341722

usemtl New_Material_6
f 89/135/68 83/122/68 88/121/68
f 90/135/66 86/122/66 84/121/66
f 93/142/72 92/141/72 91/140/72
f 94/145/73 93/144/73 91/143/73
f 95/146/74 94/145/74 91/143/74
f 96/148/75 95/147/75 91/140/75
f 92/149/76 96/144/76 91/140/76
f 97/151/77 93/142/77 94/150/77
f 98/152/78 92/141/78 93/142/78
f 99/143/79 96/144/79 92/149/79
f 100/153/80 95/147/80 96/148/80
f 101/155/81 94/154/81 95/147/81
f 98/152/82 97/151/82 102/156/82
f 99/143/83 98/149/83 102/156/83
f 100/157/84 99/143/84 102/156/84
f 101/155/85 100/153/85 102/145/85
f 97/144/86 101/149/86 102/143/86
f 93/142/87 97/151/87 98/152/87
f 92/141/88 98/152/88 99/143/88
f 96/148/89 99/143/89 100/153/89
f 95/147/90 100/153/90 101/155/90
f 94/140/91 101/149/91 97/144/91
f 105/142/72 104/141/72 103/140/72
f 106/145/73 105/144/73 103/143/73
f 107/146/74 106/145/74 103/143/74
f 108/148/75 107/147/75 103/140/75
f 104/149/76 108/144/76 103/140/76
f 109/151/77 105/142/77 106/150/77
f 110/152/78 104/141/78 105/142/78
f 111/143/79 108/144/79 104/149/79
f 112/153/80 107/147/80 108/148/80
f 113/155/81 106/154/81 107/147/81
f 110/152/82 109/151/82 114/156/82
f 111/143/83 110/149/83 114/156/83
f 112/157/84 111/143/84 114/156/84
f 113/155/85 112/153/85 114/145/85
f 109/144/86 113/149/86 114/143/86
f 105/142/87 109/151/87 110/152/87
f 104/141/88 110/152/88 111/143/88
f 108/148/89 111/143/89 112/153/89
f 107/147/90 112/153/90 113/155/90
f 106/140/91 113/149/91 109/144/91
f 84/118/65 82/116/65 81/115/65
f 81/115/65 83/117/65 84/118/65
f 86/122/66 85/120/66 82/119/66
f 82/119/66 84/121/66 86/122/66
f 88/126/67 87/124/67 85/123/67
f 85/123/67 86/125/67 88/126/67
f 83/122/68 81/120/68 87/119/68
f 87/119/68 88/121/68 83/122/68
f 82/130/69 85/128/69 87/127/69
f 87/127/69 81/129/69 82/130/69
f 90/134/70 84/132/70 83/131/70
f 83/131/70 89/133/70 90/134/70
f 89/139/71 88/137/71 86/136/71
f 86/136/71 90/138/71 89/139/71

g BlockerDown
v 0.425 0.65 0.45
v 0.4250001 0.65 -0.45
v 0.425 0.7 0.45
v 0.4250001 0.7 -0.45
v 0.4750001 0.65 -0.45
v 0.4750001 0.7 -0.45
v 0.475 0.65 0.45
v 0.475 0.7 0.45
v 0.45 0.7501 0.45
v 0.4500001 0.7501 -0.45
v 0.45 0.7701302 0.5
v 0.3974269 0.6850651 0.5324919
v 0.3649349 0.7376382 0.4474269
v 0.45 0.7701302 0.3948537
v 0.5350651 0.7376382 0.4474269
v 0.5025731 0.6850651 0.532492
v 0.3974269 0.6850651 0.3623617
v 0.3649349 0.632492 0.4474269
v 0.45 0.6 0.5
v 0.5350651 0.632492 0.4474269
v 0.5025731 0.6850651 0.3623617
v 0.45 0.6 0.3948537
v 0.4500001 0.7701302 -0.4000003
v 0.397427 0.6850651 -0.3675084
v 0.364935 0.7376382 -0.4525734
v 0.4500001 0.7701302 -0.5051465
v 0.5350652 0.7376382 -0.4525734
v 0.5025733 0.6850651 -0.3675084
v 0.397427 0.6850651 -0.5376385
v 0.364935 0.632492 -0.4525734
v 0.4500001 0.6 -0.4000003
v 0.5350652 0.632492 -0.4525734
v 0.5025732 0.6850651 -0.5376385
v 0.4500001 0.6 -0.5051465

vt -0.15 0
vt -1.05 0
vt -0.15 0.05000001
vt -1.05 0.05000001
vt 0.02499998 0
vt -0.02499998 0
vt 0.02499998 0.05000001
vt -0.02499998 0.05000001
vt 1.05 0
vt 0.15 0
vt 1.05 0.05000001
vt 0.15 0.05000001
vt -0.15 -0.02499998
vt -1.05 -0.02499998
vt -0.15 0.02499998
vt -1.05 0.02499998
vt -0.15 0.03357676
vt -1.05 0.03357676
vt -0.15 0.08956788
vt -1.05 0.08956788
vt 0 0.1001
vt 1.05 0.03357676
vt 0.15 0.03357676
vt 1.05 0.08956788
vt 0.15 0.08956788
vt 0 0.1701302
vt 0.03249197 0.08506508
vt -0.05257311 0.1376382
vt 0 0
vt 0.05257311 0.08506508
vt 0.1051462 0
vt 0.05257311 -0.08506508
vt 0.05257311 0.1376382
vt -0.03249197 0.08506508
vt -0.05257311 0.08506508
vt -0.1051462 0.1701302
vt -0.1376382 0.08506508
vt -0.05257311 0.03249197
vt 0.05257311 0.03249197
vt 0.1051462 0.1701302
vt 0.1376382 0.08506508
vt -0.1051462 0
vt -0.05257311 -0.08506508

vn -1 0 -1.192093E-07
vn 1.192093E-07 0 -1
vn 1 0 1.192093E-07
vn -1.192093E-07 0 1
vn 0 -1 0
vn -0.8947843 0.4464989 -1.066666E-07
vn 0.8947843 0.4464989 1.066666E-07
vn -0.57735 0.5773503 0.5773507
vn -0.3568216 0.9341726 3.331587E-08
vn 0.3568215 0.9341726 -3.331586E-08
vn 0.57735 0.5773506 0.5773504
vn -5.085304E-07 0.3568224 0.9341724
vn -0.5773501 0.5773504 -0.5773504
vn -0.9341724 0 0.3568223
vn -5.085304E-07 -0.3568224 0.9341724
vn 0.9341725 0 0.3568222
vn 0.57735 0.5773504 -0.5773505
vn -0.5773504 -0.5773504 -0.5773501
vn -0.3568222 -0.9341723 3.331591E-08
vn 0.3568221 -0.9341724 -3.331591E-08
vn 0.5773502 -0.5773505 -0.5773503
vn 1.11362E-07 -0.3568223 -0.9341725
vn -0.9341725 0 -0.3568221
vn -0.5773502 -0.5773503 0.5773504
vn 0.5773503 -0.5773506 0.5773501
vn 0.9341725 0 -0.3568222
vn 1.11362E-07 0.3568223 -0.9341725

usemtl New_Material_6
f 123/178/95 117/165/95 122/164/95
f 124/178/93 120/165/93 118/164/93
f 127/185/99 126/184/99 125/183/99
f 128/188/100 127/187/100 125/186/100
f 129/189/101 128/188/101 125/186/101
f 130/191/102 129/190/102 125/183/102
f 126/192/103 130/187/103 125/183/103
f 131/194/104 127/185/104 128/193/104
f 132/195/105 126/184/105 127/185/105
f 133/186/106 130/187/106 126/192/106
f 134/196/107 129/190/107 130/191/107
f 135/198/108 128/197/108 129/190/108
f 132/195/109 131/194/109 136/199/109
f 133/186/110 132/192/110 136/199/110
f 134/200/111 133/186/111 136/199/111
f 135/198/112 134/196/112 136/188/112
f 131/187/113 135/192/113 136/186/113
f 127/185/114 131/194/114 132/195/114
f 126/184/115 132/195/115 133/186/115
f 130/191/116 133/186/116 134/196/116
f 129/190/117 134/196/117 135/198/117
f 128/183/118 135/192/118 131/187/118
f 139/185/99 138/184/99 137/183/99
f 140/188/100 139/187/100 137/186/100
f 141/189/101 140/188/101 137/186/101
f 142/191/102 141/190/102 137/183/102
f 138/192/103 142/187/103 137/183/103
f 143/194/104 139/185/104 140/193/104
f 144/195/105 138/184/105 139/185/105
f 145/186/106 142/187/106 138/192/106
f 146/196/107 141/190/107 142/191/107
f 147/198/108 140/197/108 141/190/108
f 144/195/109 143/194/109 148/199/109
f 145/186/110 144/192/110 148/199/110
f 146/200/111 145/186/111 148/199/111
f 147/198/112 146/196/112 148/188/112
f 143/187/113 147/192/113 148/186/113
f 139/185/114 143/194/114 144/195/114
f 138/184/115 144/195/115 145/186/115
f 142/191/116 145/186/116 146/196/116
f 141/190/117 146/196/117 147/198/117
f 140/183/118 147/192/118 143/187/118
f 118/161/92 116/159/92 115/158/92
f 115/158/92 117/160/92 118/161/92
f 120/165/93 119/163/93 116/162/93
f 116/162/93 118/164/93 120/165/93
f 122/169/94 121/167/94 119/166/94
f 119/166/94 120/168/94 122/169/94
f 117/165/95 115/163/95 121/162/95
f 121/162/95 122/164/95 117/165/95
f 116/173/96 119/171/96 121/170/96
f 121/170/96 115/172/96 116/173/96
f 124/177/97 118/175/97 117/174/97
f 117/174/97 123/176/97 124/177/97
f 123/182/98 122/180/98 120/179/98
f 120/179/98 124/181/98 123/182/98

