# ProBuilder 4.5.2
# https://unity3d.com/unity/features/worldbuilding/probuilder
# 10/12/2021 6:48:10 PM

mtllib ./Block.mtl
o Block

g Block
v 0.5 0 0.5
v -0.5 0 0.5
v 0.5 0.2 0.5
v -0.5 0.2 0.5
v -0.5 0 -0.5
v -0.5 0.2 -0.5
v 0.5 0 -0.5
v 0.5 0.2 -0.5
v 0.45 0.25 0.45
v -0.45 0.25 0.45
v 0.45 0.25 -0.45
v -0.45 0.25 -0.45

vt 0 0
vt -1 0
vt 0 0.2
vt -1 0.2
vt 1 0
vt 1 0.2
vt 0.05000001 -0.05000001
vt 0.95 -0.05000001
vt 0.05000001 -0.95
vt 0.95 -0.95
vt 0 -1
vt -1 -1
vt 0 0.1414213
vt -1 0.1414213
vt -0.05000001 0.212132
vt -0.95 0.212132
vt 0.1414213 -1
vt 0.1414213 0
vt 0.212132 -0.95
vt 0.212132 -0.05000001
vt 0.5656856 0
vt 0.5656856 -1
vt 0.4949749 -0.05000001
vt 0.4949749 -0.95
vt 1 -0.5656855
vt 0 -0.5656855
vt 0.95 -0.4949748
vt 0.05000001 -0.4949748

vn 0 0 1
vn -1 0 0
vn 0 0 -1
vn 1 0 0
vn 0 1 0
vn 0 -1 0
vn 0 0.7071069 0.7071067
vn 0.7071067 0.7071069 0
vn -0.7071067 0.7071069 0
vn 0 0.7071069 -0.7071067

usemtl New_Material_2
f 3/3/1 4/4/1 2/2/1 1/1/1
f 4/3/2 6/4/2 5/2/2 2/1/2
f 6/6/3 8/3/3 7/1/3 5/5/3
f 8/6/4 3/3/4 1/1/4 7/5/4
f 11/9/5 12/10/5 10/8/5 9/7/5
f 1/1/6 2/2/6 5/12/6 7/11/6
f 9/15/7 10/16/7 4/14/7 3/13/7
f 11/19/8 9/20/8 3/18/8 8/17/8
f 10/23/9 12/24/9 6/22/9 4/21/9
f 12/27/10 11/28/10 8/26/10 6/25/10

g BlockerUp
v 0.5 0.65 0.55
v -0.5 0.65 0.55
v 0.5 0.7500001 0.55
v -0.5 0.7500001 0.55
v -0.5 0.65 0.45
v -0.5 0.7500001 0.45
v 0.5 0.65 0.45
v 0.5 0.7500001 0.45
v -0.45 0.8551953 0.5
v -0.401262 0.7275977 0.5788597
v -0.5288596 0.8064573 0.6275976
v -0.6077194 0.8551953 0.5
v -0.5288596 0.8064573 0.3724024
v -0.401262 0.7275977 0.4211403
v -0.6564573 0.7275977 0.5788597
v -0.5288596 0.648738 0.6275976
v -0.45 0.6 0.5
v -0.5288596 0.648738 0.3724024
v -0.6564573 0.7275977 0.4211403
v -0.6077194 0.6 0.5
v 0.55 0.8551953 0.5
v 0.598738 0.7275977 0.5788597
v 0.4711404 0.8064573 0.6275976
v 0.3922807 0.8551953 0.5
v 0.4711404 0.8064573 0.3724024
v 0.598738 0.7275977 0.4211403
v 0.3435427 0.7275977 0.5788597
v 0.4711404 0.648738 0.6275976
v 0.55 0.6 0.5
v 0.4711404 0.648738 0.3724024
v 0.3435427 0.7275977 0.4211403
v 0.3922807 0.6 0.5

vt 0.5 -0.05000001
vt -0.5 -0.05000001
vt 0.5 0.04999999
vt -0.5 0.04999999
vt 0.05000001 -0.05000001
vt -0.04999999 -0.05000001
vt 0.05000001 0.04999999
vt -0.04999999 0.04999999
vt 0.04999999 -0.05000001
vt -0.05000001 -0.05000001
vt 0.04999999 0.04999999
vt -0.05000001 0.04999999
vt -0.5 0.05000001
vt 0.5 0.05000001
vt -0.5 -0.04999999
vt 0.5 -0.04999999
vt 0 0.1701302
vt 0.03249197 0.08506508
vt -0.05257311 0.1376382
vt 0 0
vt 0.05257311 0.08506508
vt 0.1051462 0
vt 0.05257311 -0.08506508
vt 0.05257311 0.1376382
vt -0.03249197 0.08506508
vt -0.05257311 0.08506508
vt -0.1051462 0.1701302
vt -0.1376382 0.08506508
vt -0.05257311 0.03249197
vt 0.05257311 0.03249197
vt 0.1051462 0.1701302
vt 0.1376382 0.08506508
vt -0.1051462 0
vt -0.05257311 -0.08506508

vn 0 0 1
vn -1 0 0
vn 0 0 -1
vn 1 0 0
vn 0 1 0
vn 0 -1 0
vn 0.5773503 0.5773504 0.5773501
vn 0 0.9341723 0.3568224
vn 0 0.9341723 -0.3568224
vn 0.5773504 0.5773504 -0.5773501
vn 0.9341723 0.3568224 0
vn -0.5773499 0.5773502 0.5773508
vn 0.3568221 0 0.9341723
vn 0.9341723 -0.3568224 0
vn 0.3568223 0 -0.9341723
vn -0.57735 0.5773501 -0.5773508
vn -0.5773501 -0.5773501 0.5773506
vn 0 -0.9341724 0.356822
vn 0 -0.9341724 -0.356822
vn -0.5773501 -0.57735 -0.5773506
vn -0.9341725 -0.3568216 0
vn -0.3568219 0 0.9341725
vn 0.5773505 -0.5773504 0.5773499
vn 0.5773506 -0.5773503 -0.5773499
vn -0.356822 0 -0.9341724
vn -0.9341725 0.3568216 0

usemtl New_Material_4
f 23/47/17 22/46/17 21/45/17
f 24/50/18 23/49/18 21/48/18
f 25/51/19 24/50/19 21/48/19
f 26/53/20 25/52/20 21/45/20
f 22/54/21 26/49/21 21/45/21
f 27/56/22 23/47/22 24/55/22
f 28/57/23 22/46/23 23/47/23
f 29/48/24 26/49/24 22/54/24
f 30/58/25 25/52/25 26/53/25
f 31/60/26 24/59/26 25/52/26
f 28/57/27 27/56/27 32/61/27
f 29/48/28 28/54/28 32/61/28
f 30/62/29 29/48/29 32/61/29
f 31/60/30 30/58/30 32/50/30
f 27/49/31 31/54/31 32/48/31
f 23/47/32 27/56/32 28/57/32
f 22/46/33 28/57/33 29/48/33
f 26/53/34 29/48/34 30/58/34
f 25/52/35 30/58/35 31/60/35
f 24/45/36 31/54/36 27/49/36
f 35/47/17 34/46/17 33/45/17
f 36/50/18 35/49/18 33/48/18
f 37/51/19 36/50/19 33/48/19
f 38/53/20 37/52/20 33/45/20
f 34/54/21 38/49/21 33/45/21
f 39/56/22 35/47/22 36/55/22
f 40/57/23 34/46/23 35/47/23
f 41/48/24 38/49/24 34/54/24
f 42/58/25 37/52/25 38/53/25
f 43/60/26 36/59/26 37/52/26
f 40/57/27 39/56/27 44/61/27
f 41/48/28 40/54/28 44/61/28
f 42/62/29 41/48/29 44/61/29
f 43/60/30 42/58/30 44/50/30
f 39/49/31 43/54/31 44/48/31
f 35/47/32 39/56/32 40/57/32
f 34/46/33 40/57/33 41/48/33
f 38/53/34 41/48/34 42/58/34
f 37/52/35 42/58/35 43/60/35
f 36/45/36 43/54/36 39/49/36
f 16/32/11 14/30/11 13/29/11
f 13/29/11 15/31/11 16/32/11
f 18/36/12 17/34/12 14/33/12
f 14/33/12 16/35/12 18/36/12
f 20/32/13 19/30/13 17/29/13
f 17/29/13 18/31/13 20/32/13
f 15/40/14 13/38/14 19/37/14
f 19/37/14 20/39/14 15/40/14
f 18/44/15 16/42/15 15/41/15
f 15/41/15 20/43/15 18/44/15
f 14/41/16 17/43/16 19/44/16
f 19/44/16 13/42/16 14/41/16

g BlockerDown
v 0.5 0.65 -0.45
v -0.5 0.65 -0.45
v 0.5 0.7500001 -0.45
v -0.5 0.7500001 -0.45
v -0.5 0.65 -0.55
v -0.5 0.7500001 -0.55
v 0.5 0.65 -0.55
v 0.5 0.7500001 -0.55
v -0.45 0.8551953 -0.5
v -0.401262 0.7275977 -0.4211403
v -0.5288596 0.8064573 -0.3724024
v -0.6077194 0.8551953 -0.5
v -0.5288596 0.8064573 -0.6275976
v -0.401262 0.7275977 -0.5788597
v -0.6564573 0.7275977 -0.4211403
v -0.5288596 0.648738 -0.3724024
v -0.45 0.6 -0.5
v -0.5288596 0.648738 -0.6275976
v -0.6564573 0.7275977 -0.5788597
v -0.6077194 0.6 -0.5
v 0.55 0.8551953 -0.5
v 0.598738 0.7275977 -0.4211403
v 0.4711404 0.8064573 -0.3724024
v 0.3922807 0.8551953 -0.5
v 0.4711404 0.8064573 -0.6275976
v 0.598738 0.7275977 -0.5788597
v 0.3435427 0.7275977 -0.4211403
v 0.4711404 0.648738 -0.3724024
v 0.55 0.6 -0.5
v 0.4711404 0.648738 -0.6275976
v 0.3435427 0.7275977 -0.5788597
v 0.3922807 0.6 -0.5

vt 0.5 -0.05000001
vt -0.5 -0.05000001
vt 0.5 0.04999999
vt -0.5 0.04999999
vt 0.05000001 -0.05000001
vt -0.04999999 -0.05000001
vt 0.05000001 0.04999999
vt -0.04999999 0.04999999
vt 0.04999999 -0.05000001
vt -0.05000001 -0.05000001
vt 0.04999999 0.04999999
vt -0.05000001 0.04999999
vt -0.5 0.05000001
vt 0.5 0.05000001
vt -0.5 -0.04999999
vt 0.5 -0.04999999
vt 0 0.1701302
vt 0.03249197 0.08506508
vt -0.05257311 0.1376382
vt 0 0
vt 0.05257311 0.08506508
vt 0.1051462 0
vt 0.05257311 -0.08506508
vt 0.05257311 0.1376382
vt -0.03249197 0.08506508
vt -0.05257311 0.08506508
vt -0.1051462 0.1701302
vt -0.1376382 0.08506508
vt -0.05257311 0.03249197
vt 0.05257311 0.03249197
vt 0.1051462 0.1701302
vt 0.1376382 0.08506508
vt -0.1051462 0
vt -0.05257311 -0.08506508

vn 0 0 1
vn -1 0 0
vn 0 0 -1
vn 1 0 0
vn 0 1 0
vn 0 -1 0
vn 0.5773503 0.5773504 0.5773501
vn 0 0.9341723 0.3568224
vn 0 0.9341722 -0.3568225
vn 0.5773501 0.5773504 -0.5773503
vn 0.9341723 0.3568224 0
vn -0.5773499 0.5773502 0.5773508
vn 0.3568221 0 0.9341723
vn 0.9341723 -0.3568224 0
vn 0.3568218 0 -0.9341725
vn -0.5773497 0.5773502 -0.577351
vn -0.5773501 -0.5773501 0.5773506
vn 0 -0.9341724 0.356822
vn 0 -0.9341723 -0.3568221
vn -0.5773498 -0.5773501 -0.5773508
vn -0.9341726 -0.3568216 0
vn -0.3568219 0 0.9341725
vn 0.5773505 -0.5773504 0.5773499
vn 0.5773503 -0.5773504 -0.5773501
vn -0.3568215 0 -0.9341726
vn -0.9341726 0.3568216 0

usemtl New_Material_4
f 55/81/43 54/80/43 53/79/43
f 56/84/44 55/83/44 53/82/44
f 57/85/45 56/84/45 53/82/45
f 58/87/46 57/86/46 53/79/46
f 54/88/47 58/83/47 53/79/47
f 59/90/48 55/81/48 56/89/48
f 60/91/49 54/80/49 55/81/49
f 61/82/50 58/83/50 54/88/50
f 62/92/51 57/86/51 58/87/51
f 63/94/52 56/93/52 57/86/52
f 60/91/53 59/90/53 64/95/53
f 61/82/54 60/88/54 64/95/54
f 62/96/55 61/82/55 64/95/55
f 63/94/56 62/92/56 64/84/56
f 59/83/57 63/88/57 64/82/57
f 55/81/58 59/90/58 60/91/58
f 54/80/59 60/91/59 61/82/59
f 58/87/60 61/82/60 62/92/60
f 57/86/61 62/92/61 63/94/61
f 56/79/62 63/88/62 59/83/62
f 67/81/43 66/80/43 65/79/43
f 68/84/44 67/83/44 65/82/44
f 69/85/45 68/84/45 65/82/45
f 70/87/46 69/86/46 65/79/46
f 66/88/47 70/83/47 65/79/47
f 71/90/48 67/81/48 68/89/48
f 72/91/49 66/80/49 67/81/49
f 73/82/50 70/83/50 66/88/50
f 74/92/51 69/86/51 70/87/51
f 75/94/52 68/93/52 69/86/52
f 72/91/53 71/90/53 76/95/53
f 73/82/54 72/88/54 76/95/54
f 74/96/55 73/82/55 76/95/55
f 75/94/56 74/92/56 76/84/56
f 71/83/57 75/88/57 76/82/57
f 67/81/58 71/90/58 72/91/58
f 66/80/59 72/91/59 73/82/59
f 70/87/60 73/82/60 74/92/60
f 69/86/61 74/92/61 75/94/61
f 68/79/62 75/88/62 71/83/62
f 48/66/37 46/64/37 45/63/37
f 45/63/37 47/65/37 48/66/37
f 50/70/38 49/68/38 46/67/38
f 46/67/38 48/69/38 50/70/38
f 52/66/39 51/64/39 49/63/39
f 49/63/39 50/65/39 52/66/39
f 47/74/40 45/72/40 51/71/40
f 51/71/40 52/73/40 47/74/40
f 50/78/41 48/76/41 47/75/41
f 47/75/41 52/77/41 50/78/41
f 46/75/42 49/77/42 51/78/42
f 51/78/42 45/76/42 46/75/42

g BlockerLeft
v 0.4499999 0.65 0.5000001
v 0.45 0.65 -0.5000001
v 0.4499999 0.7500001 0.5000001
v 0.45 0.7500001 -0.5000001
v 0.5500001 0.65 -0.5000001
v 0.5500001 0.7500001 -0.5000001
v 0.55 0.65 0.5000001
v 0.55 0.7500001 0.5000001
v 0.5500002 0.8551953 -0.5000002
v 0.5987382 0.7275977 -0.4211405
v 0.4711405 0.8064573 -0.3724025
v 0.3922808 0.8551953 -0.5000002
v 0.4711405 0.8064573 -0.6275979
v 0.5987382 0.7275977 -0.5788599
v 0.3435428 0.7275977 -0.4211406
v 0.4711405 0.648738 -0.3724025
v 0.5500002 0.6 -0.5000002
v 0.4711405 0.648738 -0.6275979
v 0.3435428 0.7275977 -0.5788599
v 0.3922808 0.6 -0.5000002
v 0.5500002 0.8551953 0.5000002
v 0.5987382 0.7275977 0.5788599
v 0.4711405 0.8064573 0.6275979
v 0.3922808 0.8551953 0.5000002
v 0.4711405 0.8064573 0.3724025
v 0.5987383 0.7275977 0.4211406
v 0.3435428 0.7275977 0.5788599
v 0.4711405 0.648738 0.6275979
v 0.5500002 0.6 0.5000002
v 0.4711405 0.648738 0.3724025
v 0.3435428 0.7275977 0.4211406
v 0.3922808 0.6 0.5000002

vt 0.5 -0.05000001
vt -0.5 -0.05000001
vt 0.5 0.04999999
vt -0.5 0.04999999
vt 0.05000001 -0.05000001
vt -0.04999999 -0.05000001
vt 0.05000001 0.04999999
vt -0.04999999 0.04999999
vt 0.04999999 -0.05000001
vt -0.05000001 -0.05000001
vt 0.04999999 0.04999999
vt -0.05000001 0.04999999
vt -0.5 0.05000001
vt 0.5 0.05000001
vt -0.5 -0.04999999
vt 0.5 -0.04999999
vt 0 0.1701302
vt 0.03249197 0.08506508
vt -0.05257311 0.1376382
vt 0 0
vt 0.05257311 0.08506508
vt 0.1051462 0
vt 0.05257311 -0.08506508
vt 0.05257311 0.1376382
vt -0.03249197 0.08506508
vt -0.05257311 0.08506508
vt -0.1051462 0.1701302
vt -0.1376382 0.08506508
vt -0.05257311 0.03249197
vt 0.05257311 0.03249197
vt 0.1051462 0.1701302
vt 0.1376382 0.08506508
vt -0.1051462 0
vt -0.05257311 -0.08506508

vn -1 0 -1.192093E-07
vn 1.192093E-07 0 -1
vn 1 0 1.192093E-07
vn -1.192093E-07 0 1
vn 0 1 0
vn 0 -1 0
vn 0.5773503 0.5773504 0.5773502
vn -4.253652E-08 0.9341723 0.3568222
vn 4.253653E-08 0.9341723 -0.3568223
vn 0.5773502 0.5773504 -0.5773503
vn 0.9341724 0.3568224 1.11362E-07
vn -0.5773504 0.5773503 0.5773503
vn 0.3568224 0 0.9341724
vn 0.9341724 -0.3568224 1.11362E-07
vn 0.3568224 0 -0.9341724
vn -0.5773501 0.5773504 -0.5773504
vn -0.5773506 -0.5773503 0.5773501
vn -4.253647E-08 -0.9341725 0.3568218
vn 4.253648E-08 -0.9341724 -0.3568219
vn -0.5773503 -0.5773504 -0.5773502
vn -0.9341725 -0.3568222 2.416765E-07
vn -0.3568226 0 0.9341723
vn 0.5773505 -0.5773504 0.57735
vn 0.5773504 -0.5773504 -0.5773501
vn -0.3568222 0 -0.9341725
vn -0.9341725 0.3568222 2.416765E-07

usemtl New_Material_4
f 87/115/69 86/114/69 85/113/69
f 88/118/70 87/117/70 85/116/70
f 89/119/71 88/118/71 85/116/71
f 90/121/72 89/120/72 85/113/72
f 86/122/73 90/117/73 85/113/73
f 91/124/74 87/115/74 88/123/74
f 92/125/75 86/114/75 87/115/75
f 93/116/76 90/117/76 86/122/76
f 94/126/77 89/120/77 90/121/77
f 95/128/78 88/127/78 89/120/78
f 92/125/79 91/124/79 96/129/79
f 93/116/80 92/122/80 96/129/80
f 94/130/81 93/116/81 96/129/81
f 95/128/82 94/126/82 96/118/82
f 91/117/83 95/122/83 96/116/83
f 87/115/84 91/124/84 92/125/84
f 86/114/85 92/125/85 93/116/85
f 90/121/86 93/116/86 94/126/86
f 89/120/87 94/126/87 95/128/87
f 88/113/88 95/122/88 91/117/88
f 99/115/69 98/114/69 97/113/69
f 100/118/70 99/117/70 97/116/70
f 101/119/71 100/118/71 97/116/71
f 102/121/72 101/120/72 97/113/72
f 98/122/73 102/117/73 97/113/73
f 103/124/74 99/115/74 100/123/74
f 104/125/75 98/114/75 99/115/75
f 105/116/76 102/117/76 98/122/76
f 106/126/77 101/120/77 102/121/77
f 107/128/78 100/127/78 101/120/78
f 104/125/79 103/124/79 108/129/79
f 105/116/80 104/122/80 108/129/80
f 106/130/81 105/116/81 108/129/81
f 107/128/82 106/126/82 108/118/82
f 103/117/83 107/122/83 108/116/83
f 99/115/84 103/124/84 104/125/84
f 98/114/85 104/125/85 105/116/85
f 102/121/86 105/116/86 106/126/86
f 101/120/87 106/126/87 107/128/87
f 100/113/88 107/122/88 103/117/88
f 80/100/63 78/98/63 77/97/63
f 77/97/63 79/99/63 80/100/63
f 82/104/64 81/102/64 78/101/64
f 78/101/64 80/103/64 82/104/64
f 84/100/65 83/98/65 81/97/65
f 81/97/65 82/99/65 84/100/65
f 79/108/66 77/106/66 83/105/66
f 83/105/66 84/107/66 79/108/66
f 82/112/67 80/110/67 79/109/67
f 79/109/67 84/111/67 82/112/67
f 78/109/68 81/111/68 83/112/68
f 83/112/68 77/110/68 78/109/68

g BlockerRight
v -0.5500001 0.65 0.5000001
v -0.55 0.65 -0.5000001
v -0.5500001 0.7500001 0.5000001
v -0.55 0.7500001 -0.5000001
v -0.45 0.65 -0.5000001
v -0.45 0.7500001 -0.5000001
v -0.4500001 0.65 0.5000001
v -0.4500001 0.7500001 0.5000001
v -0.45 0.8551953 -0.5000002
v -0.401262 0.7275977 -0.4211405
v -0.5288597 0.8064573 -0.3724025
v -0.6077193 0.8551953 -0.5000002
v -0.5288597 0.8064573 -0.6275979
v -0.401262 0.7275977 -0.5788599
v -0.6564573 0.7275977 -0.4211406
v -0.5288597 0.648738 -0.3724025
v -0.45 0.6 -0.5000002
v -0.5288597 0.648738 -0.6275979
v -0.6564573 0.7275977 -0.5788599
v -0.6077193 0.6 -0.5000002
v -0.45 0.8551953 0.5000002
v -0.401262 0.7275977 0.5788599
v -0.5288597 0.8064573 0.6275979
v -0.6077194 0.8551953 0.5000002
v -0.5288597 0.8064573 0.3724025
v -0.401262 0.7275977 0.4211406
v -0.6564573 0.7275977 0.5788599
v -0.5288597 0.648738 0.6275979
v -0.45 0.6 0.5000002
v -0.5288597 0.648738 0.3724025
v -0.6564574 0.7275977 0.4211406
v -0.6077194 0.6 0.5000002

vt 0.5 -0.05000001
vt -0.5 -0.05000001
vt 0.5 0.04999999
vt -0.5 0.04999999
vt 0.05000001 -0.05000001
vt -0.04999999 -0.05000001
vt 0.05000001 0.04999999
vt -0.04999999 0.04999999
vt 0.04999999 -0.05000001
vt -0.05000001 -0.05000001
vt 0.04999999 0.04999999
vt -0.05000001 0.04999999
vt -0.5 0.05000001
vt 0.5 0.05000001
vt -0.5 -0.04999999
vt 0.5 -0.04999999
vt 0 0.1701302
vt 0.03249197 0.08506508
vt -0.05257311 0.1376382
vt 0 0
vt 0.05257311 0.08506508
vt 0.1051462 0
vt 0.05257311 -0.08506508
vt 0.05257311 0.1376382
vt -0.03249197 0.08506508
vt -0.05257311 0.08506508
vt -0.1051462 0.1701302
vt -0.1376382 0.08506508
vt -0.05257311 0.03249197
vt 0.05257311 0.03249197
vt 0.1051462 0.1701302
vt 0.1376382 0.08506508
vt -0.1051462 0
vt -0.05257311 -0.08506508

vn -1 0 -1.192093E-07
vn 1.192093E-07 0 -1
vn 1 0 1.192093E-07
vn -1.192093E-07 0 1
vn 0 1 0
vn 0 -1 0
vn 0.5773501 0.5773505 0.5773504
vn -4.253651E-08 0.9341723 0.3568222
vn 4.253652E-08 0.9341723 -0.3568223
vn 0.5773502 0.5773503 -0.5773504
vn 0.9341725 0.3568222 -2.416765E-07
vn -0.5773506 0.5773504 0.5773499
vn 0.3568223 0 0.9341725
vn 0.9341725 -0.3568222 -2.416765E-07
vn 0.3568224 0 -0.9341724
vn -0.5773505 0.5773504 -0.5773501
vn -0.5773508 -0.5773504 0.5773498
vn -4.253647E-08 -0.9341725 0.3568218
vn 4.253648E-08 -0.9341725 -0.3568219
vn -0.5773507 -0.5773504 -0.5773498
vn -0.9341724 -0.3568224 -1.11362E-07
vn -0.3568228 0 0.9341722
vn 0.5773503 -0.5773504 0.5773502
vn 0.5773504 -0.5773503 -0.5773503
vn -0.3568225 0 -0.9341724
vn -0.9341724 0.3568224 -1.11362E-07

usemtl New_Material_4
f 119/149/95 118/148/95 117/147/95
f 120/152/96 119/151/96 117/150/96
f 121/153/97 120/152/97 117/150/97
f 122/155/98 121/154/98 117/147/98
f 118/156/99 122/151/99 117/147/99
f 123/158/100 119/149/100 120/157/100
f 124/159/101 118/148/101 119/149/101
f 125/150/102 122/151/102 118/156/102
f 126/160/103 121/154/103 122/155/103
f 127/162/104 120/161/104 121/154/104
f 124/159/105 123/158/105 128/163/105
f 125/150/106 124/156/106 128/163/106
f 126/164/107 125/150/107 128/163/107
f 127/162/108 126/160/108 128/152/108
f 123/151/109 127/156/109 128/150/109
f 119/149/110 123/158/110 124/159/110
f 118/148/111 124/159/111 125/150/111
f 122/155/112 125/150/112 126/160/112
f 121/154/113 126/160/113 127/162/113
f 120/147/114 127/156/114 123/151/114
f 131/149/95 130/148/95 129/147/95
f 132/152/96 131/151/96 129/150/96
f 133/153/97 132/152/97 129/150/97
f 134/155/98 133/154/98 129/147/98
f 130/156/99 134/151/99 129/147/99
f 135/158/100 131/149/100 132/157/100
f 136/159/101 130/148/101 131/149/101
f 137/150/102 134/151/102 130/156/102
f 138/160/103 133/154/103 134/155/103
f 139/162/104 132/161/104 133/154/104
f 136/159/105 135/158/105 140/163/105
f 137/150/106 136/156/106 140/163/106
f 138/164/107 137/150/107 140/163/107
f 139/162/108 138/160/108 140/152/108
f 135/151/109 139/156/109 140/150/109
f 131/149/110 135/158/110 136/159/110
f 130/148/111 136/159/111 137/150/111
f 134/155/112 137/150/112 138/160/112
f 133/154/113 138/160/113 139/162/113
f 132/147/114 139/156/114 135/151/114
f 112/134/89 110/132/89 109/131/89
f 109/131/89 111/133/89 112/134/89
f 114/138/90 113/136/90 110/135/90
f 110/135/90 112/137/90 114/138/90
f 116/134/91 115/132/91 113/131/91
f 113/131/91 114/133/91 116/134/91
f 111/142/92 109/140/92 115/139/92
f 115/139/92 116/141/92 111/142/92
f 114/146/93 112/144/93 111/143/93
f 111/143/93 116/145/93 114/146/93
f 110/143/94 113/145/94 115/146/94
f 115/146/94 109/144/94 110/143/94

