# ProBuilder 4.5.2
# https://unity3d.com/unity/features/worldbuilding/probuilder
# 10/9/2021 6:16:39 PM

mtllib ./Cat.mtl
o Cat

g Cat
v 0.2102924 1.452923 0
v 0.3236068 1.225 0.1236068
v 0.1236068 1.425861 0.2
v 0.3402603 0.9 0.2102924
v 0.2 1.100861 0.3236068
v 0 1.241725 0.3402603
v 0 1.55 0
v -0.1236068 1.425861 0.2
v -0.2102924 1.452923 0
v 0.1236068 1.425861 -0.2
v -0.1236068 1.425861 -0.2
v 0 1.241725 -0.3402603
v 0.3236068 1.225 -0.1236068
v 0.2 1.100861 -0.3236068
v 0.3402603 0.9 -0.2102924
v 0.4 0.9 0
v -0.3236068 1.225 0.1236068
v -0.2 1.100861 0.3236068
v -0.3402603 0.9 0.2102924
v 0 0.9 0.4
v 0.2 0.6991389 0.3236068
v 0 0.5582748 0.3402603
v 0.3236068 0.575 0.1236068
v 0.3236068 0.575 -0.1236068
v 0.2102924 0.347077 0
v 0.2 0.6991389 -0.3236068
v 0 0.9 -0.4
v 0 0.5582748 -0.3402603
v -0.2 1.100861 -0.3236068
v -0.3236068 1.225 -0.1236068
v -0.3402603 0.9 -0.2102924
v -0.2102924 0.347077 0
v -0.3236068 0.575 0.1236068
v -0.1236068 0.3741389 0.2
v -0.2 0.6991389 0.3236068
v 0 0.25 0
v 0.1236068 0.3741389 0.2
v -0.1236068 0.3741389 -0.2
v 0.1236068 0.3741389 -0.2
v -0.3236068 0.575 -0.1236068
v -0.2 0.6991389 -0.3236068
v -0.4 0.9 0

vt -0.05257311 0
vt -0.0809017 0.0309017
vt -0.0309017 0.05
vt -0.0309017 0.15
vt -0.05257311 0.1
vt -0.0809017 0.1309017
vt 0.0809017 0.15
vt 0.05 0.1309017
vt 0.0309017 0.1809017
vt 0 0.1525731
vt 0 0
vt 0 0.08506508
vt 0.0309017 0.05
vt 0.05257311 0
vt -0.0309017 -0.05
vt 0.0309017 -0.05
vt 0 -0.08506508
vt -0.0809017 -0.0309017
vt -0.0309017 0.1809017
vt -0.05 0.1309017
vt -0.0809017 0.15
vt 0.0309017 0.15
vt 0.0809017 0.1309017
vt 0.05257311 0.1
vt 0 0.1850651
vt 0 0.1
vt 0.0809017 0.0309017
vt 0.08506508 0.1
vt 0.05 0.0690983
vt 0 0.04742689
vt 0 0.01493492
vt -0.08506508 0.1
vt -0.05 0.0690983
vt 0.0809017 -0.0309017
vt 0.0809017 0.0690983
vt -0.0809017 0.05
vt -0.0309017 0.0190983
vt 0.0309017 0.0190983
vt 0.0809017 0.05
vt -0.0809017 0.0690983

vn 2.332515 4.867093 1.260376
vn 2.995134 2.04811 2.332515
vn 2.309401 3.752777 2.309402
vn 1.260375 3.790337 2.995134
vn 1.072139 6.132895 0.7789549
vn 0 5.056139 2.513714
vn 0 6.072121 1.427288
vn -1.072139 6.132895 0.7789549
vn 1.072139 6.132895 -0.7789549
vn -1.072139 6.132895 -0.7789549
vn 0 6.072121 -1.427288
vn 0 5.056139 -2.513714
vn 2.332515 4.867093 -1.260376
vn 1.260375 3.790337 -2.995134
vn 2.309401 3.752777 -2.309402
vn 2.995134 2.04811 -2.332515
vn 3.11147 4.084784 0
vn 3.774089 1.265801 -1.07214
vn 3.73669 2.319343 0
vn 3.774089 1.265801 1.07214
vn -2.332515 4.867093 1.260376
vn -1.260375 3.790337 2.995134
vn -2.309401 3.752777 2.309402
vn -2.995134 2.04811 2.332515
vn 0.7789547 1.742227 3.774089
vn 2.513713 0 3.11147
vn 1.427288 0 3.73669
vn 0.7789546 -1.742227 3.774089
vn 3.774089 -1.265801 1.07214
vn 3.774089 -1.265801 -1.07214
vn 3.73669 -2.319344 0
vn 3.11147 -4.084785 0
vn 2.513713 0 -3.11147
vn 0.7789547 1.742227 -3.774089
vn 1.427288 0 -3.73669
vn 0.7789546 -1.742227 -3.774089
vn -1.260375 3.790337 -2.995134
vn -2.332515 4.867093 -1.260376
vn -2.309401 3.752777 -2.309402
vn -2.995134 2.04811 -2.332515
vn -2.332515 -4.867093 1.260375
vn -2.995134 -2.04811 2.332515
vn -2.309401 -3.752777 2.309401
vn -1.260375 -3.790337 2.995134
vn -1.07214 -6.132895 0.7789546
vn 0 -5.056139 2.513714
vn 0 -6.072121 1.427288
vn 1.07214 -6.132895 0.7789546
vn -1.07214 -6.132895 -0.7789546
vn 1.07214 -6.132895 -0.7789546
vn 0 -6.072121 -1.427288
vn 0 -5.056139 -2.513714
vn -2.332515 -4.867093 -1.260375
vn -1.260375 -3.790337 -2.995134
vn -2.309401 -3.752777 -2.309401
vn -2.995134 -2.04811 -2.332515
vn -3.11147 -4.084785 0
vn -3.774089 -1.265801 -1.07214
vn -3.73669 -2.319344 0
vn -3.774089 -1.265801 1.07214
vn -0.7789546 -1.742227 3.774089
vn -2.513713 0 3.11147
vn -1.427288 0 3.73669
vn -0.7789547 1.742227 3.774089
vn 2.332515 -4.867093 1.260375
vn 1.260375 -3.790337 2.995134
vn 2.309401 -3.752777 2.309401
vn 2.995134 -2.04811 2.332515
vn 1.260375 -3.790337 -2.995134
vn 2.332515 -4.867093 -1.260375
vn 2.309401 -3.752777 -2.309401
vn 2.995134 -2.04811 -2.332515
vn -2.513713 0 -3.11147
vn -0.7789546 -1.742227 -3.774089
vn -1.427288 0 -3.73669
vn -0.7789547 1.742227 -3.774089
vn -3.774089 1.265801 1.07214
vn -3.774089 1.265801 -1.07214
vn -3.73669 2.319343 0
vn -3.11147 4.084784 0

usemtl New_Material_4
f 3/3/1 2/2/1 1/1/1
f 5/6/2 4/5/2 2/4/2
f 3/9/3 5/8/3 2/7/3
f 6/10/4 5/8/4 3/9/4
f 7/11/5 3/3/5 1/1/5
f 8/13/6 6/12/6 3/3/6
f 7/11/7 8/13/7 3/3/7
f 9/14/8 8/13/8 7/11/8
f 10/15/9 7/11/9 1/1/9
f 11/16/10 9/14/10 7/11/10
f 10/15/11 11/16/11 7/11/11
f 12/17/12 11/16/12 10/15/12
f 13/18/13 10/15/13 1/1/13
f 14/20/14 12/10/14 10/19/14
f 13/21/15 14/20/15 10/19/15
f 15/24/16 14/23/16 13/22/16
f 2/4/17 13/22/17 1/25/17
f 16/26/18 15/24/18 13/22/18
f 2/4/19 16/26/19 13/22/19
f 4/5/20 16/26/20 2/4/20
f 17/27/21 8/13/21 9/14/21
f 18/20/22 6/10/22 8/19/22
f 17/21/23 18/20/23 8/19/23
f 19/24/24 18/23/24 17/22/24
f 20/26/25 5/8/25 6/10/25
f 21/29/26 4/28/26 5/8/26
f 20/26/27 21/29/27 5/8/27
f 22/30/28 21/29/28 20/26/28
f 23/3/29 16/26/29 4/5/29
f 24/13/30 15/24/30 16/26/30
f 23/3/31 24/13/31 16/26/31
f 25/31/32 24/13/32 23/3/32
f 26/33/33 14/20/33 15/32/33
f 27/26/34 12/10/34 14/20/34
f 26/33/35 27/26/35 14/20/35
f 28/30/36 27/26/36 26/33/36
f 29/8/37 11/9/37 12/10/37
f 30/34/38 9/14/38 11/16/38
f 29/8/39 30/7/39 11/9/39
f 31/5/40 30/4/40 29/6/40
f 34/3/41 33/2/41 32/1/41
f 35/35/42 19/24/42 33/13/42
f 34/37/43 35/33/43 33/36/43
f 22/30/44 35/33/44 34/37/44
f 36/11/45 34/3/45 32/1/45
f 37/13/46 22/12/46 34/3/46
f 36/11/47 37/13/47 34/3/47
f 25/14/48 37/13/48 36/11/48
f 38/15/49 36/11/49 32/1/49
f 39/16/50 25/14/50 36/11/50
f 38/15/51 39/16/51 36/11/51
f 28/17/52 39/16/52 38/15/52
f 40/18/53 38/15/53 32/1/53
f 41/29/54 28/30/54 38/38/54
f 40/39/55 41/29/55 38/38/55
f 31/5/56 41/40/56 40/3/56
f 33/13/57 40/3/57 32/31/57
f 42/26/58 31/5/58 40/3/58
f 33/13/59 42/26/59 40/3/59
f 19/24/60 42/26/60 33/13/60
f 20/26/61 35/33/61 22/30/61
f 18/20/62 19/32/62 35/33/62
f 20/26/63 18/20/63 35/33/63
f 6/10/64 18/20/64 20/26/64
f 23/27/65 37/13/65 25/14/65
f 21/29/66 22/30/66 37/38/66
f 23/39/67 21/29/67 37/38/67
f 4/5/68 21/40/68 23/3/68
f 26/33/69 39/37/69 28/30/69
f 24/34/70 25/14/70 39/16/70
f 26/33/71 24/36/71 39/37/71
f 15/24/72 24/13/72 26/35/72
f 29/8/73 41/29/73 31/28/73
f 27/26/74 28/30/74 41/29/74
f 29/8/75 27/26/75 41/29/75
f 12/10/76 27/26/76 29/8/76
f 17/22/77 42/26/77 19/24/77
f 30/4/78 31/5/78 42/26/78
f 17/22/79 30/4/79 42/26/79
f 9/25/80 30/4/80 17/22/80

g EarRight
v 0.04999993 1.35 0.25
v 0.04999995 1.45 0.07679494
v -1.029385E-07 1.611898 0.2431698
v -0.1000001 1.45 0.1451911

vt 0.01307425 0.05445753
vt 1.056695 -0.1960976
vt 0.5254644 1.079132
vt -0.0923079 -0.5863307
vt 0.7274123 -0.3200878
vt 0.3168159 0.7331516
vt -1.210356 -0.02588997
vt -0.1826605 -0.03260942
vt -0.7067017 0.9861552
vt 6.302389E-08 0.2440588
vt -1.073276 0.2440588
vt -0.6826284 1.012317

vn 0.194917 0.04897286 0.007203066
vn -0.05948618 0.1894529 -0.1114717
vn -0.02974309 0.09472644 -0.05573585
vn 0 0 0
vn -0.1340372 -0.06417349 0.1204468
vn -0.06701861 -0.03208674 0.06022341
vn -0.04334372 -0.213415 -0.0313896

usemtl New_Material_4
f 43/41/81 44/42/81 45/43/81
f 46/52/87 44/51/87 43/50/87
f 45/46/83 44/44/82 46/45/83
f 46/45/83 45/46/84 45/46/83
f 45/49/86 46/47/85 43/48/86
f 43/48/86 45/49/84 45/49/86

g EarLeft
v -0.1 1.43475 -0.1499999
v 0.05000003 1.490528 -0.1001901
v 6.109476E-08 1.611898 -0.2431702
v 0.05 1.35 -0.25

vt 0.2831771 -0.2231754
vt 1.110141 -0.185726
vt 0.6676417 0.8710119
vt -1 -0.1819014
vt -1.698732E-07 -0.1819014
vt -0.5000002 0.8488752
vt -0.5625449 0.1017972
vt 0.4308228 0.06558786
vt -0.04434508 1.123545
vt -0.6514099 -0.001672574
vt -8.046629E-08 0.7491643
vt -1 0.7491644

vn -0.08227474 0.1817088 0.1056641
vn -0.04113737 0.09085438 0.05283204
vn 0 0 0
vn 0.1940285 0.04647802 -0.01651065
vn -0.1294585 -0.06383301 -0.1239454
vn -0.06472927 -0.0319165 -0.06197268
vn 0.009439762 -0.1914204 0.06799926

usemtl New_Material_4
f 48/56/91 50/57/91 49/58/91
f 50/63/94 48/64/94 47/62/94
f 49/55/89 47/53/88 48/54/89
f 48/54/89 49/55/90 49/55/89
f 49/61/93 50/59/92 47/60/93
f 47/60/93 49/61/90 49/61/93

g EyeRight
v 0.2920595 1.442152 0.15
v 0.3322242 1.328149 0.2025731
v 0.285012 1.38446 0.2350651
v 0.2558333 1.419263 0.15
v 0.285012 1.38446 0.06493492
v 0.3322242 1.328149 0.09742689
v 0.273609 1.291114 0.2025731
v 0.3208212 1.234802 0.2350651
v 0.35 1.2 0.15
v 0.3208212 1.234802 0.06493492
v 0.273609 1.291114 0.09742689
v 0.3137738 1.177111 0.15

vt 0 0.1701302
vt 0.03249197 0.08506508
vt -0.05257311 0.1376382
vt 0 0
vt 0.05257311 0.08506508
vt 0.1051462 0
vt 0.05257311 -0.08506508
vt 0.05257311 0.1376382
vt -0.03249197 0.08506508
vt -0.05257311 0.08506508
vt -0.1051462 0.1701302
vt -0.1376382 0.08506508
vt -0.05257311 0.03249197
vt 0.05257311 0.03249197
vt 0.1051462 0.1701302
vt 0.1376382 0.08506508
vt -0.1051462 0
vt -0.05257311 -0.08506508

vn 0.002289687 0.9474419 0.5773503
vn -0.3181472 1.329637 0.3568221
vn -0.3181472 1.329637 -0.3568221
vn 0.002289687 0.9474419 -0.5773503
vn 0.2003306 0.7112325 0
vn -0.3955413 0.6960796 0.5773503
vn 0.1229365 0.07767525 0.9341724
vn 0.4433734 -0.3045196 0
vn 0.1229365 0.07767525 -0.9341723
vn -0.3955412 0.6960795 -0.5773503
vn -0.002289667 -0.9474419 0.5773503
vn 0.3181472 -1.329637 0.3568221
vn 0.3181472 -1.329637 -0.3568221
vn -0.002289667 -0.9474419 -0.5773503
vn -0.2003305 -0.7112325 0
vn -0.1229365 -0.07767525 0.9341724
vn 0.3955412 -0.6960795 0.5773503
vn 0.3955412 -0.6960795 -0.5773503
vn -0.1229365 -0.07767525 -0.9341723
vn -0.4433734 0.3045197 0

usemtl New_Material_6
f 53/67/95 52/66/95 51/65/95
f 54/70/96 53/69/96 51/68/96
f 55/71/97 54/70/97 51/68/97
f 56/73/98 55/72/98 51/65/98
f 52/74/99 56/69/99 51/65/99
f 57/76/100 53/67/100 54/75/100
f 58/77/101 52/66/101 53/67/101
f 59/68/102 56/69/102 52/74/102
f 60/78/103 55/72/103 56/73/103
f 61/80/104 54/79/104 55/72/104
f 58/77/105 57/76/105 62/81/105
f 59/68/106 58/74/106 62/81/106
f 60/82/107 59/68/107 62/81/107
f 61/80/108 60/78/108 62/70/108
f 57/69/109 61/74/109 62/68/109
f 53/67/110 57/76/110 58/77/110
f 52/66/111 58/77/111 59/68/111
f 56/73/112 59/68/112 60/78/112
f 55/72/113 60/78/113 61/80/113
f 54/65/114 61/74/114 57/69/114

g EyeLeft
v 0.2920595 1.442152 -0.1
v 0.3322242 1.328149 -0.04742691
v 0.285012 1.38446 -0.01493494
v 0.2558333 1.419263 -0.1
v 0.285012 1.38446 -0.1850651
v 0.3322242 1.328149 -0.1525731
v 0.273609 1.291114 -0.04742691
v 0.3208212 1.234802 -0.01493494
v 0.35 1.2 -0.1
v 0.3208212 1.234802 -0.1850651
v 0.273609 1.291114 -0.1525731
v 0.3137738 1.177111 -0.1

vt 0 0.1701302
vt 0.03249197 0.08506508
vt -0.05257311 0.1376382
vt 0 0
vt 0.05257311 0.08506508
vt 0.1051462 0
vt 0.05257311 -0.08506508
vt 0.05257311 0.1376382
vt -0.03249197 0.08506508
vt -0.05257311 0.08506508
vt -0.1051462 0.1701302
vt -0.1376382 0.08506508
vt -0.05257311 0.03249197
vt 0.05257311 0.03249197
vt 0.1051462 0.1701302
vt 0.1376382 0.08506508
vt -0.1051462 0
vt -0.05257311 -0.08506508

vn 0.002289687 0.9474419 0.5773503
vn -0.3181472 1.329637 0.3568221
vn -0.3181472 1.329637 -0.3568221
vn 0.002289687 0.9474419 -0.5773503
vn 0.2003306 0.7112325 0
vn -0.3955413 0.6960796 0.5773503
vn 0.1229365 0.07767525 0.9341724
vn 0.4433734 -0.3045196 0
vn 0.1229365 0.07767525 -0.9341723
vn -0.3955412 0.6960795 -0.5773503
vn -0.002289667 -0.9474419 0.5773503
vn 0.3181472 -1.329637 0.3568221
vn 0.3181472 -1.329637 -0.3568221
vn -0.002289667 -0.9474419 -0.5773503
vn -0.2003305 -0.7112325 0
vn -0.1229365 -0.07767525 0.9341724
vn 0.3955412 -0.6960795 0.5773503
vn 0.3955412 -0.6960795 -0.5773503
vn -0.1229365 -0.07767525 -0.9341723
vn -0.4433734 0.3045197 0

usemtl New_Material_6
f 65/85/115 64/84/115 63/83/115
f 66/88/116 65/87/116 63/86/116
f 67/89/117 66/88/117 63/86/117
f 68/91/118 67/90/118 63/83/118
f 64/92/119 68/87/119 63/83/119
f 69/94/120 65/85/120 66/93/120
f 70/95/121 64/84/121 65/85/121
f 71/86/122 68/87/122 64/92/122
f 72/96/123 67/90/123 68/91/123
f 73/98/124 66/97/124 67/90/124
f 70/95/125 69/94/125 74/99/125
f 71/86/126 70/92/126 74/99/126
f 72/100/127 71/86/127 74/99/127
f 73/98/128 72/96/128 74/88/128
f 69/87/129 73/92/129 74/86/129
f 65/85/130 69/94/130 70/95/130
f 64/84/131 70/95/131 71/86/131
f 68/91/132 71/86/132 72/96/132
f 67/90/133 72/96/133 73/98/133
f 66/83/134 73/92/134 69/87/134

g FootRIght
v 0.20348 0.4681617 0.3
v 0.2977067 0.3363109 0.3814883
v 0.05101798 0.4177992 0.4318509
v -0.1014441 0.4681617 0.3
v 0.05101798 0.4177992 0.1681491
v 0.2977067 0.3363109 0.2185117
v -0.1956708 0.3363109 0.3814883
v 0.05101798 0.2548226 0.4318509
v 0.20348 0.20446 0.3
v 0.05101798 0.2548226 0.1681491
v -0.1956708 0.3363109 0.2185117
v -0.1014441 0.20446 0.3

vt 0 0.1701302
vt 0.03249197 0.08506508
vt -0.05257311 0.1376382
vt 0 0
vt 0.05257311 0.08506508
vt 0.1051462 0
vt 0.05257311 -0.08506508
vt 0.05257311 0.1376382
vt -0.03249197 0.08506508
vt -0.05257311 0.08506508
vt -0.1051462 0.1701302
vt -0.1376382 0.08506508
vt -0.05257311 0.03249197
vt 0.05257311 0.03249197
vt 0.1051462 0.1701302
vt 0.1376382 0.08506508
vt -0.1051462 0
vt -0.05257311 -0.08506508

vn 1.674316 0.8948929 0.8948929
vn 0 1.447967 0.5530742
vn 0 1.447967 -0.5530742
vn 1.674316 0.8948929 -0.8948929
vn 2.7091 0.5530742 0
vn -1.674316 0.894893 0.8948929
vn 1.034784 0 1.447967
vn 2.7091 -0.5530742 0
vn 1.034784 0 -1.447967
vn -1.674316 0.8948929 -0.8948929
vn -1.674316 -0.894893 0.8948929
vn 0 -1.447967 0.5530743
vn 0 -1.447967 -0.5530743
vn -1.674316 -0.894893 -0.8948929
vn -2.7091 -0.5530743 0
vn -1.034784 0 1.447967
vn 1.674316 -0.8948929 0.8948929
vn 1.674316 -0.8948929 -0.8948929
vn -1.034784 0 -1.447967
vn -2.7091 0.5530743 0

usemtl New_Material_4
f 77/103/135 76/102/135 75/101/135
f 78/106/136 77/105/136 75/104/136
f 79/107/137 78/106/137 75/104/137
f 80/109/138 79/108/138 75/101/138
f 76/110/139 80/105/139 75/101/139
f 81/112/140 77/103/140 78/111/140
f 82/113/141 76/102/141 77/103/141
f 83/104/142 80/105/142 76/110/142
f 84/114/143 79/108/143 80/109/143
f 85/116/144 78/115/144 79/108/144
f 82/113/145 81/112/145 86/117/145
f 83/104/146 82/110/146 86/117/146
f 84/118/147 83/104/147 86/117/147
f 85/116/148 84/114/148 86/106/148
f 81/105/149 85/110/149 86/104/149
f 77/103/150 81/112/150 82/113/150
f 76/102/151 82/113/151 83/104/151
f 80/109/152 83/104/152 84/114/152
f 79/108/153 84/114/153 85/116/153
f 78/101/154 85/110/154 81/105/154

g FootLeft
v 0.20348 0.4681617 -0.3
v 0.2977067 0.3363109 -0.2185117
v 0.05101798 0.4177992 -0.1681491
v -0.1014441 0.4681617 -0.3
v 0.05101798 0.4177992 -0.4318509
v 0.2977067 0.3363109 -0.3814883
v -0.1956708 0.3363109 -0.2185117
v 0.05101798 0.2548226 -0.1681491
v 0.20348 0.20446 -0.3
v 0.05101798 0.2548226 -0.4318509
v -0.1956708 0.3363109 -0.3814883
v -0.1014441 0.20446 -0.3

vt 0 0.1701302
vt 0.03249197 0.08506508
vt -0.05257311 0.1376382
vt 0 0
vt 0.05257311 0.08506508
vt 0.1051462 0
vt 0.05257311 -0.08506508
vt 0.05257311 0.1376382
vt -0.03249197 0.08506508
vt -0.05257311 0.08506508
vt -0.1051462 0.1701302
vt -0.1376382 0.08506508
vt -0.05257311 0.03249197
vt 0.05257311 0.03249197
vt 0.1051462 0.1701302
vt 0.1376382 0.08506508
vt -0.1051462 0
vt -0.05257311 -0.08506508

vn 1.674316 0.8948929 0.8948929
vn 0 1.447967 0.5530742
vn 0 1.447967 -0.5530742
vn 1.674316 0.8948929 -0.8948929
vn 2.7091 0.5530742 0
vn -1.674316 0.894893 0.8948929
vn 1.034784 0 1.447967
vn 2.7091 -0.5530742 0
vn 1.034784 0 -1.447967
vn -1.674316 0.8948929 -0.8948929
vn -1.674316 -0.894893 0.8948929
vn 0 -1.447967 0.5530743
vn 0 -1.447967 -0.5530743
vn -1.674316 -0.894893 -0.8948929
vn -2.7091 -0.5530743 0
vn -1.034784 0 1.447967
vn 1.674316 -0.8948929 0.8948929
vn 1.674316 -0.8948929 -0.8948929
vn -1.034784 0 -1.447967
vn -2.7091 0.5530743 0

usemtl New_Material_4
f 89/121/155 88/120/155 87/119/155
f 90/124/156 89/123/156 87/122/156
f 91/125/157 90/124/157 87/122/157
f 92/127/158 91/126/158 87/119/158
f 88/128/159 92/123/159 87/119/159
f 93/130/160 89/121/160 90/129/160
f 94/131/161 88/120/161 89/121/161
f 95/122/162 92/123/162 88/128/162
f 96/132/163 91/126/163 92/127/163
f 97/134/164 90/133/164 91/126/164
f 94/131/165 93/130/165 98/135/165
f 95/122/166 94/128/166 98/135/166
f 96/136/167 95/122/167 98/135/167
f 97/134/168 96/132/168 98/124/168
f 93/123/169 97/128/169 98/122/169
f 89/121/170 93/130/170 94/131/170
f 88/120/171 94/131/171 95/122/171
f 92/127/172 95/122/172 96/132/172
f 91/126/173 96/132/173 97/134/173
f 90/119/174 97/128/174 93/123/174

