# ProBuilder 4.5.2
# https://unity3d.com/unity/features/worldbuilding/probuilder
# 10/10/2021 12:55:30 AM

mtllib ./Hole.mtl
o Hole

g Hole
v 0.45 0.225 0.45
v -0.45 0.225 0.45
v 0.45 0.275 0.45
v -0.45 0.275 0.45
v -0.45 0.225 -0.45
v -0.45 0.275 -0.45
v 0.45 0.225 -0.45
v 0.45 0.275 -0.45

vt 0 0
vt -1 0
vt 0 0.05
vt -1 0.05
vt 1 0
vt 1 0.05
vt 0 -1
vt 1 -1
vt -1 -1

vn 0 0 0.9
vn -0.9 0 0
vn 0 0 -0.9
vn 0.9 0 0
vn 0 1 0
vn 0 -1 0

usemtl New_Material_6
f 3/3/1 4/4/1 2/2/1 1/1/1
f 4/3/2 6/4/2 5/2/2 2/1/2
f 6/6/3 8/3/3 7/1/3 5/5/3
f 8/6/4 3/3/4 1/1/4 7/5/4
f 8/7/5 6/8/5 4/5/5 3/1/5
f 1/1/6 2/2/6 5/9/6 7/7/6

