# ProBuilder 4.5.2
# https://unity3d.com/unity/features/worldbuilding/probuilder
# 10/9/2021 6:36:17 PM

mtllib ./Spawner.mtl
o Spawner

g Spawner
v -0.4 0.25 0
v -0.4 0.3 0
v -0.3236068 0.25 0.2351141
v -0.3236068 0.3 0.2351141
v -0.1236068 0.25 0.3804226
v -0.1236068 0.3 0.3804226
v 0.1236067 0.25 0.3804226
v 0.1236067 0.3 0.3804226
v 0.3236068 0.25 0.2351141
v 0.3236068 0.3 0.2351141
v 0.4 0.25 -3.496911E-08
v 0.4 0.3 0
v 0.3236068 0.25 -0.2351141
v 0.3236068 0.3 -0.2351141
v 0.1236068 0.25 -0.3804226
v 0.1236068 0.3 -0.3804226
v -0.1236069 0.25 -0.3804226
v -0.1236069 0.3 -0.3804226
v -0.3236068 0.25 -0.2351141
v -0.3236068 0.3 -0.2351141
v -2.980232E-08 0.25 0
v 0 0.3 0

vt -0.1236068 -0.02500001
vt -0.1236068 0.02499999
vt 0.1236068 -0.02500001
vt 0.1236068 0.02499999
vt -0.1236068 -0.02499997
vt -0.1236068 0.02500003
vt 0.1236068 -0.02499997
vt 0.1236068 0.02500003
vt -0.4 0
vt -2.980232E-08 0
vt -0.3236068 0.2351141
vt 0.4 0
vt 0.3236068 0.2351141
vt -0.1236068 0.3804226
vt 0.1236068 0.3804226
vt 0.4 -3.496911E-08
vt -0.4 0
vt 0.3236068 -0.2351141
vt -0.3236068 -0.2351141
vt 0.1236068 -0.3804226
vt -0.1236068 -0.3804226

vn -0.9510565 0 0.3090169
vn -0.5877852 0 0.809017
vn 0 5.960464E-07 1
vn 0.5877852 4.822118E-07 0.809017
vn 0.9510565 -9.209423E-08 0.3090169
vn 0.9510565 2.16121E-07 -0.309017
vn 0.5877854 -7.233175E-07 -0.8090169
vn 0 0 -1
vn -0.5877853 -3.503473E-07 -0.8090169
vn -0.9510565 -3.826854E-07 -0.309017
vn 0 -1 0
vn 0 1 0

usemtl New_Material_4
f 1/9/11 21/10/11 3/11/11
f 3/11/11 21/10/11 5/14/11
f 5/14/11 21/10/11 7/15/11
f 7/15/11 21/10/11 9/13/11
f 9/13/11 21/10/11 11/16/11
f 11/16/11 21/10/11 13/18/11
f 13/18/11 21/10/11 15/20/11
f 15/20/11 21/10/11 17/21/11
f 17/21/11 21/10/11 19/19/11
f 19/19/11 21/10/11 1/9/11
f 4/13/12 22/10/12 2/12/12
f 6/15/12 22/10/12 4/13/12
f 8/14/12 22/10/12 6/15/12
f 10/11/12 22/10/12 8/14/12
f 12/17/12 22/10/12 10/11/12
f 14/19/12 22/10/12 12/17/12
f 16/21/12 22/10/12 14/19/12
f 18/20/12 22/10/12 16/21/12
f 20/18/12 22/10/12 18/20/12
f 2/12/12 22/10/12 20/18/12
f 4/4/1 2/2/1 1/1/1
f 1/1/1 3/3/1 4/4/1
f 6/4/2 4/2/2 3/1/2
f 3/1/2 5/3/2 6/4/2
f 8/4/3 6/2/3 5/1/3
f 5/1/3 7/3/3 8/4/3
f 10/4/4 8/2/4 7/1/4
f 7/1/4 9/3/4 10/4/4
f 12/8/5 10/6/5 9/5/5
f 9/5/5 11/7/5 12/8/5
f 14/4/6 12/2/6 11/1/6
f 11/1/6 13/3/6 14/4/6
f 16/8/7 14/6/7 13/5/7
f 13/5/7 15/7/7 16/8/7
f 18/4/8 16/2/8 15/1/8
f 15/1/8 17/3/8 18/4/8
f 20/8/9 18/6/9 17/5/9
f 17/5/9 19/7/9 20/8/9
f 2/8/10 20/6/10 19/5/10
f 19/5/10 1/7/10 2/8/10

